<svg width="134" height="35" viewBox="0 0 134 35" fill="none" xmlns="http://www.w3.org/2000/svg">
<path d="M0 29.6871V5.3129C0 4.86604 0.358594 4.50043 0.796875 4.50043H3.45312C3.89141 4.50043 4.25 4.86604 4.25 5.3129V15.5975L15.6387 5.00146C17.0066 3.84368 19.125 4.81188 19.125 6.66702V15.5975L30.5137 5.00146C31.8816 3.84368 34 4.81188 34 6.66702V28.333C34 30.1881 31.8816 31.1563 30.5137 29.9985L19.125 19.4838V28.333C19.125 30.1881 17.0066 31.1563 15.6387 29.9985L4.25 19.4838V29.6871C4.25 30.134 3.89141 30.4996 3.45312 30.4996H0.796875C0.358594 30.4996 0 30.134 0 29.6871Z" fill="#FBA834"/>
<path d="M66.5 0C56.8327 0 49 7.83266 49 17.5C49 27.1673 56.8327 35 66.5 35C76.1673 35 84 27.1673 84 17.5C84 7.83266 76.1673 0 66.5 0ZM74.6643 19.1935L62.245 26.3206C61.13 26.9415 59.7258 26.1442 59.7258 24.8387V10.1613C59.7258 8.8629 61.123 8.05847 62.245 8.67944L74.6643 16.2298C75.8216 16.879 75.8216 18.5514 74.6643 19.1935Z" fill="#FBA834"/>
<path d="M116.5 0C106.833 0 99 7.83266 99 17.5C99 27.1673 106.833 35 116.5 35C126.167 35 134 27.1673 134 17.5C134 7.83266 126.167 0 116.5 0ZM115.371 23.1452C115.371 23.7661 114.863 24.2742 114.242 24.2742H110.855C110.234 24.2742 109.726 23.7661 109.726 23.1452V11.8548C109.726 11.2339 110.234 10.7258 110.855 10.7258H114.242C114.863 10.7258 115.371 11.2339 115.371 11.8548V23.1452ZM123.274 23.1452C123.274 23.7661 122.766 24.2742 122.145 24.2742H118.758C118.137 24.2742 117.629 23.7661 117.629 23.1452V11.8548C117.629 11.2339 118.137 10.7258 118.758 10.7258H122.145C122.766 10.7258 123.274 11.2339 123.274 11.8548V23.1452Z" fill="#FBA834"/>
</svg>
