<svg width="30" height="25" viewBox="0 0 30 25" fill="none" xmlns="http://www.w3.org/2000/svg">
<path d="M12.75 9.37105C11.925 9.37105 11.25 10.0742 11.25 10.9336V14.8398C11.25 15.2715 10.9144 15.6211 10.5 15.6211C10.0856 15.6211 9.75 15.2715 9.75 14.8398V11.102C9.75 10.2529 9.97125 9.4189 10.3917 8.69038L14.0363 2.36273C14.4623 1.62249 14.2327 0.663016 13.522 0.218679C12.8447 -0.204662 11.9883 0.00871767 11.5392 0.668388C11.5298 0.679618 11.5102 0.678641 11.5022 0.691825L6.00562 9.28072C5.51062 10.0542 5.25 10.9531 5.25 11.8798V15.7973L1.02562 17.2641C0.726923 17.3677 0.467096 17.5665 0.283001 17.8325C0.0989061 18.0985 -0.000109353 18.4182 9.06295e-08 18.7461V23.4336C9.06295e-08 23.9619 0.399375 24.9961 1.5 24.9961C1.62609 24.9961 1.75359 24.9795 1.87781 24.9458L10.2773 22.6694C12.6169 21.9726 14.25 19.7173 14.25 17.1836V10.9336C14.25 10.0742 13.575 9.37105 12.75 9.37105ZM28.9744 17.268L24.75 15.8012V11.8838C24.75 10.957 24.4894 10.0581 23.9944 9.28462L18.4978 0.69622C18.4894 0.683036 18.4702 0.684501 18.4608 0.672782C18.0117 0.0131122 17.1553 -0.200267 16.478 0.223074C15.7673 0.666923 15.5377 1.62689 15.9637 2.36712L19.6083 8.69478C20.0287 9.4233 20.25 10.2573 20.25 11.1064V14.8442C20.25 15.2759 19.9144 15.6255 19.5 15.6255C19.0856 15.6255 18.75 15.2759 18.75 14.8442V10.9379C18.75 10.0786 18.075 9.37544 17.25 9.37544C16.425 9.37544 15.75 10.0786 15.75 10.9379V17.188C15.75 19.7217 17.3831 21.977 19.7227 22.6733L28.1222 24.9497C28.2469 24.9834 28.3744 25 28.5 25C29.6006 25 30 23.9658 30 23.4375V18.75C30 18.0776 29.587 17.4809 28.9744 17.268Z" fill="#C7C6C5"/>
</svg>
