<svg width="30" height="30" viewBox="0 0 30 30" fill="none" xmlns="http://www.w3.org/2000/svg">
<path d="M7.12969 13.7625C6.96563 13.0062 6.76406 11.6875 6.76406 11.6875H6.74063C6.74063 11.6875 6.53906 13.0062 6.375 13.7625L5.85469 16.1063H7.64062L7.12969 13.7625ZM28.875 5H15.75V25H28.875C29.4984 25 30 24.3312 30 23.5V6.5C30 5.66875 29.4984 5 28.875 5ZM27.75 12.5C27.75 12.9125 27.4969 13.25 27.1875 13.25H26.6531C26.3297 14.725 25.6359 16.2125 24.6516 17.6187C25.0453 18.0187 25.4531 18.4 25.875 18.7437C26.1328 18.9562 26.2172 19.4 26.0672 19.7563L25.6969 20.625C25.5375 20.9937 25.1859 21.1125 24.9141 20.8937C24.3234 20.4062 23.7656 19.8875 23.2547 19.3375C22.7437 19.8812 22.1906 20.4062 21.5953 20.8937C21.3234 21.1125 20.9719 20.9937 20.8125 20.625L20.4422 19.7563C20.2922 19.4062 20.3766 18.9562 20.6391 18.7437C21.075 18.3875 21.4828 18.0125 21.8625 17.6187C21.4922 17.0938 21.1641 16.5563 20.8781 16.0125C20.6906 15.6563 20.775 15.1625 21.0516 14.9438L21.3563 14.7L21.6984 14.4312C21.9516 14.2312 22.2797 14.325 22.4484 14.6438C22.6828 15.0813 22.9547 15.5188 23.2641 15.95C23.8969 15.0625 24.3797 14.1438 24.6703 13.25H19.3125C19.0031 13.25 18.75 12.9125 18.75 12.5V11.5C18.75 11.0875 19.0031 10.75 19.3125 10.75H22.3125V9.75C22.3125 9.3375 22.5656 9 22.875 9H23.625C23.9344 9 24.1875 9.3375 24.1875 9.75V10.75H27.1875C27.4969 10.75 27.75 11.0875 27.75 11.5V12.5ZM0 6.5V23.5C0 24.3312 0.501562 25 1.125 25H14.25V5H1.125C0.501562 5 0 5.66875 0 6.5ZM2.76094 20.0063L5.45625 9.4375C5.53594 9.13125 5.74688 8.93125 5.99063 8.93125H7.51406C7.75313 8.93125 7.96875 9.1375 8.04844 9.4375L10.7437 20.0063C10.8656 20.4938 10.5984 21 10.2094 21H9.13594C9.01463 20.9999 8.8966 20.9475 8.79945 20.8506C8.7023 20.7538 8.63125 20.6176 8.59687 20.4625L8.15625 18.4688H5.33438L4.90781 20.4562C4.8375 20.775 4.61719 21 4.36875 21H3.29531C2.91094 21 2.63906 20.4938 2.76094 20.0063Z" fill="#C7C6C5"/>
</svg>
