<svg width="29" height="25" viewBox="0 0 29 25" fill="none" xmlns="http://www.w3.org/2000/svg">
<path d="M12.0109 9.37105C11.2337 9.37105 10.5978 10.0742 10.5978 10.9336V14.8398C10.5978 15.2715 10.2817 15.6211 9.8913 15.6211C9.50095 15.6211 9.18478 15.2715 9.18478 14.8398V11.102C9.18478 10.2529 9.39321 9.4189 9.7893 8.69038L13.2226 2.36273C13.6239 1.62249 13.4076 0.663016 12.7381 0.218679C12.1001 -0.204662 11.2933 0.00871771 10.8703 0.668388C10.8614 0.679618 10.8429 0.678641 10.8354 0.691825L5.65747 9.28072C5.19117 10.0542 4.94565 10.9531 4.94565 11.8798V15.7973L0.966169 17.2641C0.684782 17.3677 0.440018 17.5665 0.266595 17.8325C0.0931724 18.0985 -0.000103014 18.4182 8.53756e-08 18.7461V23.4336C8.53756e-08 23.9619 0.376223 24.9961 1.41304 24.9961C1.53183 24.9961 1.65194 24.9795 1.76895 24.9458L9.68156 22.6694C11.8855 21.9726 13.4239 19.7173 13.4239 17.1836V10.9336C13.4239 10.0742 12.788 9.37105 12.0109 9.37105ZM27.2947 17.268L23.3152 15.8012V11.8838C23.3152 10.957 23.0697 10.0581 22.6034 9.28462L17.4255 0.69622C17.4175 0.683036 17.3994 0.684501 17.3906 0.672782C16.9676 0.0131122 16.1608 -0.200267 15.5227 0.223074C14.8533 0.666923 14.6369 1.62689 15.0383 2.36712L18.4716 8.69478C18.8677 9.4233 19.0761 10.2573 19.0761 11.1064V14.8442C19.0761 15.2759 18.7599 15.6255 18.3696 15.6255C17.9792 15.6255 17.663 15.2759 17.663 14.8442V10.9379C17.663 10.0786 17.0272 9.37544 16.25 9.37544C15.4728 9.37544 14.837 10.0786 14.837 10.9379V17.188C14.837 19.7217 16.3754 21.977 18.5793 22.6733L26.4919 24.9497C26.6094 24.9834 26.7295 25 26.8478 25C27.8846 25 28.2609 23.9658 28.2609 23.4375V18.75C28.2609 18.0776 27.8718 17.4809 27.2947 17.268Z" fill="#3E84AB"/>
</svg>
