<svg width="392" height="61" viewBox="0 0 392 61" fill="none" xmlns="http://www.w3.org/2000/svg">
<path d="M1 1H138.336C147.737 1 156.765 4.67752 163.49 11.2465L172.064 19.621C185.558 32.8004 206.935 33.3308 221.066 20.8368L233.287 10.0307C239.868 4.21188 248.349 1 257.133 1H391V60H1V1Z" fill="white"/>
<path d="M1 0.5H0.5V1V60V60.5H1H391H391.5V60V1V0.5H391H257.133C248.227 0.5 239.628 3.75649 232.955 9.65614L220.734 20.4622C206.8 32.7827 185.72 32.2597 172.414 19.2634L163.84 10.8888C157.021 4.2286 147.867 0.5 138.336 0.5H1Z" stroke="black" stroke-opacity="0.13"/>
</svg>
