<svg width="39" height="39" viewBox="0 0 39 39" fill="none" xmlns="http://www.w3.org/2000/svg">
<path d="M19.5 39C30.2696 39 39 30.2696 39 19.5C39 8.73045 30.2696 0 19.5 0C8.73045 0 0 8.73045 0 19.5C0 30.2696 8.73045 39 19.5 39Z" fill="#CB2027"/>
<path d="M21.0739 26.1119C19.5997 25.9978 18.9802 25.2668 17.8241 24.565C17.1887 27.8989 16.4121 31.0948 14.112 32.7643C13.4012 27.7254 15.1541 23.9407 15.9682 19.9234C14.5806 17.5875 16.1351 12.8858 19.0619 14.0444C22.6642 15.4689 15.9432 22.73 20.4551 23.6369C25.1655 24.5838 27.0885 15.4636 24.1672 12.4972C19.9466 8.21432 11.8818 12.3998 12.8735 18.5309C13.1151 20.0298 14.664 20.4848 13.4922 22.5531C10.791 21.9548 9.98523 19.8244 10.0888 16.9841C10.256 12.3348 14.2663 9.07951 18.2888 8.62901C23.3761 8.05963 28.1508 10.497 28.8098 15.2822C29.5513 20.6829 26.5132 26.5318 21.0739 26.1119Z" fill="#F1F2F2"/>
</svg>
