<svg width="19" height="19" viewBox="0 0 19 19" fill="none" xmlns="http://www.w3.org/2000/svg">
<path d="M18.5335 2.66572C18.3478 2.16257 18.0516 1.70715 17.6667 1.33332C17.2929 0.948415 16.8377 0.652189 16.3343 0.466509C15.926 0.307927 15.3126 0.119168 14.1828 0.0677439C12.9606 0.0120092 12.5942 0 9.50016 0C6.4058 0 6.03937 0.0117012 4.81751 0.067436C3.68773 0.119168 3.07403 0.307927 2.66603 0.466509C2.16257 0.652189 1.70715 0.948415 1.33363 1.33332C0.948722 1.70715 0.652497 2.16226 0.466509 2.66572C0.307927 3.07403 0.119168 3.68773 0.0677439 4.81751C0.0120092 6.03937 0 6.4058 0 9.50016C0 12.5942 0.0120092 12.9606 0.0677439 14.1828C0.119168 15.3126 0.307927 15.926 0.466509 16.3343C0.652497 16.8377 0.948415 17.2929 1.33332 17.6667C1.70715 18.0516 2.16226 18.3478 2.66572 18.5335C3.07403 18.6924 3.68773 18.8811 4.81751 18.9326C6.03937 18.9883 6.40549 19 9.49985 19C12.5945 19 12.9609 18.9883 14.1825 18.9326C15.3123 18.8811 15.926 18.6924 16.3343 18.5335C17.3449 18.1437 18.1437 17.3449 18.5335 16.3343C18.6921 15.926 18.8808 15.3126 18.9326 14.1828C18.9883 12.9606 19 12.5942 19 9.50016C19 6.4058 18.9883 6.03937 18.9326 4.81751C18.8811 3.68773 18.6924 3.07403 18.5335 2.66572ZM9.50016 15.4502C6.21366 15.4502 3.54947 12.7864 3.54947 9.49985C3.54947 6.21335 6.21366 3.54947 9.50016 3.54947C12.7864 3.54947 15.4505 6.21335 15.4505 9.49985C15.4505 12.7864 12.7864 15.4502 9.50016 15.4502ZM15.6858 4.70481C14.9178 4.70481 14.2952 4.08219 14.2952 3.31422C14.2952 2.54625 14.9178 1.92362 15.6858 1.92362C16.4538 1.92362 17.0764 2.54625 17.0764 3.31422C17.0761 4.08219 16.4538 4.70481 15.6858 4.70481Z" fill="#3B5998"/>
</svg>
